<svg xmlns="http://www.w3.org/2000/svg" width="92" height="92" viewBox="0 0 92 92">
    <g fill="none" fill-rule="evenodd">
        <path fill="#FFF" d="M-666-2166H774V549H-666z"/>
        <g fill="#000">
            <path stroke="#000" stroke-width=".5" d="M46 90.562C21.428 90.562 1.438 70.572 1.438 46 1.438 21.427 21.428 1.437 46 1.437S90.562 21.427 90.562 46c0 24.572-19.99 44.562-44.562 44.562M46 0C20.595 0 0 20.595 0 46c0 25.406 20.595 46 46 46s46-20.594 46-46C92 20.595 71.405 0 46 0"/>
            <path d="M68.642 27C70.492 27 72 28.53 72 30.407v31.186C72 63.471 70.492 65 68.642 65H25.067c-1.853 0-3.359-1.53-3.359-3.407v-3.726c0-.527.419-.95.938-.95.517 0 .937.423.937.95v3.726c0 .83.664 1.505 1.484 1.505h43.575c.82 0 1.483-.675 1.483-1.505V30.407c0-.832-.664-1.505-1.483-1.505H25.067c-.82 0-1.484.673-1.484 1.505v8.196c0 .525-.42.95-.937.95a.943.943 0 0 1-.938-.95v-8.196c0-1.878 1.506-3.407 3.359-3.407h43.575zM46.854 49.496a.922.922 0 0 1-.59-.213l-19.988-16.48a.96.96 0 0 1-.135-1.337.93.93 0 0 1 1.318-.139l19.395 15.991L66.3 31.286a.927.927 0 0 1 1.318.137.959.959 0 0 1-.135 1.337L47.445 49.283a.922.922 0 0 1-.591.213zM31.669 43.11c0 .525-.42.951-.938.951H12.938a.943.943 0 0 1-.938-.95c0-.526.418-.952.938-.952H30.73c.518 0 .938.426.938.951zm0 4.865c0 .525-.42.951-.938.951h-14.72a.945.945 0 0 1-.938-.951c0-.525.42-.951.938-.951h14.72c.518 0 .938.426.938.95zm-.044 4.94c0 .524-.42.95-.938.95H18.772a.943.943 0 0 1-.938-.95c0-.526.418-.952.938-.952h11.915c.518 0 .938.426.938.951z"/>
        </g>
    </g>
</svg>
